<svg width="16" height="25" viewBox="0 0 16 25" fill="none" xmlns="http://www.w3.org/2000/svg">
<g filter="url(#filter0_i)">
<path d="M14.1062 0H2.10616C1.70833 0 1.3268 0.161126 1.0455 0.447932C0.764191 0.734738 0.606156 1.12373 0.606156 1.52934V22.8865C0.605918 23.1896 0.694031 23.486 0.859306 23.7379C1.02458 23.9899 1.25956 24.1861 1.53442 24.3016C1.80927 24.4172 2.1116 24.4468 2.40302 24.3868C2.69444 24.3268 2.9618 24.1799 3.17116 23.9647L8.07615 18.9791L13.0487 24.0259C13.2589 24.2389 13.5263 24.3837 13.8171 24.4419C14.1079 24.5002 14.4092 24.4692 14.6828 24.3531C14.9564 24.2369 15.1901 24.0407 15.3545 23.7892C15.5188 23.5377 15.6064 23.2422 15.6062 22.94V1.52934C15.6062 1.12373 15.4481 0.734738 15.1668 0.447932C14.8855 0.161126 14.504 0 14.1062 0Z" fill="#09191F"/>
</g>
<defs>
<filter id="filter0_i" x="0.606155" y="0" width="15" height="24.4706" filterUnits="userSpaceOnUse" color-interpolation-filters="sRGB">
<feFlood flood-opacity="0" result="BackgroundImageFix"/>
<feBlend mode="normal" in="SourceGraphic" in2="BackgroundImageFix" result="shape"/>
<feColorMatrix in="SourceAlpha" type="matrix" values="0 0 0 0 0 0 0 0 0 0 0 0 0 0 0 0 0 0 127 0" result="hardAlpha"/>
<feOffset/>
<feGaussianBlur stdDeviation="1.5"/>
<feComposite in2="hardAlpha" operator="arithmetic" k2="-1" k3="1"/>
<feColorMatrix type="matrix" values="0 0 0 0 0.0258333 0 0 0 0 0.0434091 0 0 0 0 0.05 0 0 0 1 0"/>
<feBlend mode="normal" in2="shape" result="effect1_innerShadow"/>
</filter>
</defs>
</svg>
